<svg xmlns="http://www.w3.org/2000/svg" xmlns:xlink="http://www.w3.org/1999/xlink" width="67" height="67" viewBox="0 0 67 67"><defs><path id="7g4pa" d="M180 287a32 32 0 1 1 0 64 32 32 0 0 1 0-64zm-27.98 32c0 1.36.1 2.7.28 4h12.22a16.03 16.03 0 0 1 0-8H152.3c-.18 1.3-.28 2.65-.28 4zM172 305.18v-12.99A28.05 28.05 0 0 0 153.18 311h12.99a16.06 16.06 0 0 1 5.83-5.83zm0 40.67v-12.99a16.06 16.06 0 0 1-5.84-5.85h-12.98A28.05 28.05 0 0 0 172 345.84zm8 1.16c1.36 0 2.7-.1 4-.28v-12.23a16 16 0 0 1-8 0v12.23c1.3.18 2.64.28 4 .28zm27.98-28c0-1.35-.1-2.7-.28-4h-12.23a16.03 16.03 0 0 1 0 8h12.23c.18-1.3.28-2.64.28-4zM188 292.19v12.99a16.06 16.06 0 0 1 5.83 5.83h12.99A28.05 28.05 0 0 0 188 292.18zm0 40.67v12.99A28.05 28.05 0 0 0 206.82 327h-12.98a16.06 16.06 0 0 1-5.84 5.85zm-8-29.83a16 16 0 0 1 4 .5V291.3a28.2 28.2 0 0 0-8 0v12.23a16 16 0 0 1 4-.5zm-11.98 16a11.98 11.98 0 1 0 23.97 0 11.98 11.98 0 0 0-23.97 0z"/></defs><g><g transform="translate(-146 -285)"><use fill="red" xlink:href="#7g4pa"/></g></g></svg>