<svg xmlns="http://www.w3.org/2000/svg" xmlns:xlink="http://www.w3.org/1999/xlink" width="68" height="66" viewBox="0 0 68 66"><defs><path id="b5f1a" d="M507.02 350.97c-18.18 0-18.32-.75-20.57-2.45-1.2-.9-3.45-1.52-11.68-2.06a2.14 2.14 0 0 1-1.55-.73c-.17-.21-4.28-6.2-4.28-15.81 0-9.47 2.94-13.78 3.07-13.98a2 2 0 0 1 1.7-.94c6.75 0 16.12-8.63 22.41-23.68 1.1-2.6 1.32-4.32 5.32-4.32 2.27 0 4.82 1.63 6.08 3.72 2.59 4.27 1.27 13.44.06 18.34 4.12-.03 11.6-.09 15.14-.09 4.95 0 8.22 2.95 8.32 7.26.03 1.42-.16 3.24-.57 4.17 1.09 1.09 2.5 2.73 2.55 4.83.08 2.72-1.7 4.8-2.84 5.98.26.8.78 1.84.73 3.1-.12 3.08-2.5 5.07-3.99 6.1.13.85.22 2.44-.05 3.67-1.07 4.91-8.27 6.89-19.85 6.89zm-31.19-8.56c7.17.59 11 1.4 13.02 2.91 1.57 1.18 1.33 1.65 18.17 1.65 5.13 0 15.18-.22 15.95-3.74.3-1.41-1.18-2.8-1.19-2.8-.4-1.01.05-2.19 1.04-2.62.01 0 4-1.44 4.1-3.67.06-1.43-.92-2.28-.95-2.32-.58-.9-.37-2.14.52-2.76 0 0 2.6-1.58 2.53-3.71-.05-1.7-2.28-2.9-2.35-2.94a2.02 2.02 0 0 1-.61-2.96s1.01-1.62.98-3.13c-.08-3.25-3.57-3.35-4.32-3.35-5.04 0-18 .05-18 .05-.7 0-1.3-.32-1.68-.88a2.11 2.11 0 0 1-.18-1.9c1.95-5.62 3.05-14.45 1.23-17.46-.53-.9-.65-1.78-2.65-1.78-.28 0-.94.22-1.63 1.86-6.68 15.99-16.67 25.24-24.84 26.07-.7 1.61-2.03 4.94-2.03 10.99 0 6.17 1.95 10.94 2.9 12.49z"/></defs><g><g transform="translate(-467 -286)"><use fill="red" xlink:href="#b5f1a"/></g></g></svg>