<svg xmlns="http://www.w3.org/2000/svg" xmlns:xlink="http://www.w3.org/1999/xlink" width="67" height="64" viewBox="0 0 67 64"><defs><path id="ppyja" d="M844.05 298.16c0 2.8-1.12 5.1-2.88 6.84h6.8a4 4 0 0 1 4 4v11.97H848v26.04a4 4 0 0 1-4 4h-47.98a4 4 0 0 1-4-4v-26.04h-4.03V309a4 4 0 0 1 4-4h6.92a9.3 9.3 0 0 1-2.94-6.84c0-3.47 1.99-7.23 7.57-7.23 7.35 0 13.68 7.83 16.57 12.21 2.88-4.38 9.02-12.21 16.37-12.21 5.59 0 7.58 3.76 7.58 7.23zm-22.07 22.81v26.04h22.01v-26.04zm-4 0H796v26.04h21.97zM816.54 305c-2.84-4.22-8.03-10.07-13-10.07-2.48 0-3.58.98-3.58 3.17 0 4.44 5.14 6.9 9.8 6.9zm23.5-6.84c0-2.2-1.1-3.23-3.57-3.23-4.97 0-9.97 5.85-12.82 10.07h6.78c4.66 0 9.62-2.4 9.62-6.84zm7.94 10.84h-26v7.97h26zm-56 0v7.97h26V309z"/></defs><g><g transform="translate(-786 -289)"><use fill="red" xlink:href="#ppyja"/></g></g></svg>